<?xml version="1.0" encoding="utf-8"?>
<!-- Generator: Adobe Illustrator 19.0.0, SVG Export Plug-In . SVG Version: 6.00 Build 0)  -->
<svg version="1.1" id="Capa_1" xmlns="http://www.w3.org/2000/svg" xmlns:xlink="http://www.w3.org/1999/xlink" x="0px" y="0px"
	 viewBox="0 0 172.7 172.7" style="enable-background:new 0 0 172.7 172.7;" xml:space="preserve">
<style type="text/css">
	.st0{fill:#FFFFFF;}
</style>
<g id="XMLID_383_">
	<g id="XMLID_385_">
		<path id="XMLID_390_" class="st0" d="M109.2,31.6c-2.8,0-5.1,2.3-5.1,5.1v98.2c0,2.8,2.3,5.1,5.1,5.1c2.8,0,5.1-2.3,5.1-5.1V36.8
			C114.3,33.9,112,31.6,109.2,31.6"/>
		<path id="XMLID_389_" class="st0" d="M127.6,56.2c-2.8,0-5.1,2.3-5.1,5.1v50c0,2.8,2.3,5.1,5.1,5.1c2.8,0,5.1-2.3,5.1-5.1v-50
			C132.7,58.5,130.4,56.2,127.6,56.2"/>
		<path id="XMLID_388_" class="st0" d="M164.4,75.6c-2.8,0-5.1,2.3-5.1,5.1V91c0,2.8,2.3,5.1,5.1,5.1c2.8,0,5.1-2.3,5.1-5.1V80.7
			C169.5,77.9,167.2,75.6,164.4,75.6"/>
		<path id="XMLID_387_" class="st0" d="M145.9,44.8c-2.8,0-5.1,2.3-5.1,5.1v72c0,2.8,2.3,5.1,5.1,5.1c2.8,0,5.1-2.3,5.1-5.1v-72
			C151,47.1,148.7,44.8,145.9,44.8"/>
		<path id="XMLID_386_" class="st0" d="M93.5,9.3c0-2.8-2.3-5.1-5.1-5.1c0,0,0,0,0,0c0,0,0,0,0,0c-0.4,0-0.7,0-1,0.1V4.3
			c-0.3,0.1-0.5,0.2-0.7,0.3c-0.2,0.1-0.4,0.2-0.6,0.3c0,0,0,0-0.1,0c-0.8,0.4-1.4,1-1.9,1.8c-0.4,0.6-0.8,1.2-1,1.9L67.4,56.8
			c-0.9,2.8-3.5,4.7-6.5,4.7H10c-6.6,0-9.4,8.5-4,12.4l41.1,29.7c2.4,1.7,3.4,4.8,2.5,7.6l-15.7,48.2c-2,6.3,5.1,11.5,10.5,7.6
			l38.9-28.2v23.4c0,0,0,0,0,0c0,2.8,2.3,5.1,5.1,5.1c0,0,0,0,0,0c0,0,0,0,0,0c2.8,0,5.1-2.3,5.1-5.1L93.5,9.3
			C93.5,9.4,93.5,9.3,93.5,9.3"/>
	</g>
</g>
</svg>
