<?xml version="1.0" encoding="utf-8"?>
<!-- Generator: Adobe Illustrator 19.0.0, SVG Export Plug-In . SVG Version: 6.00 Build 0)  -->
<svg version="1.1" id="Capa_1" xmlns="http://www.w3.org/2000/svg" xmlns:xlink="http://www.w3.org/1999/xlink" x="0px" y="0px"
	 viewBox="0 0 274.5 273" style="enable-background:new 0 0 274.5 273;" xml:space="preserve">
<style type="text/css">
	.st0{fill:#FFFFFF;}
</style>
<g id="XMLID_121_">
	<g id="XMLID_122_">
		<path id="XMLID_127_" class="st0" d="M85.8,48.2c4.5,0,8.2,3.7,8.2,8.2v158.5c0,4.6-3.7,8.2-8.2,8.2c-4.5,0-8.2-3.7-8.2-8.2V56.4
			C77.6,51.9,81.3,48.2,85.8,48.2"/>
		<path id="XMLID_126_" class="st0" d="M56.2,87.9c4.5,0,8.2,3.7,8.2,8.2v80.7c0,4.6-3.7,8.2-8.2,8.2c-4.5,0-8.2-3.7-8.2-8.2V96.2
			C47.9,91.6,51.6,87.9,56.2,87.9"/>
		<path id="XMLID_125_" class="st0" d="M25.8,119.1c4.5,0,8.2,3.7,8.2,8.2V144c0,4.6-3.7,8.2-8.2,8.2c-4.5,0-8.2-3.7-8.2-8.2v-16.6
			C17.6,122.8,21.3,119.1,25.8,119.1"/>
		<path id="XMLID_123_" class="st0" d="M111.2,12.2c0-4.5,3.7-8.2,8.2-8.2c0,0,0,0,0,0c0,0,0,0,0,0c0.6,0,1.1,0.1,1.7,0.2V4
			c0.4,0.1,0.8,0.4,1.2,0.5c0.3,0.1,0.6,0.3,0.9,0.4c0,0,0.1,0,0.1,0.1c1.3,0.7,2.3,1.7,3.1,2.9c0.7,0.9,1.2,1.9,1.6,3.1l25.4,77.9
			c1.5,4.5,5.7,7.6,10.5,7.6h82.1c10.7,0,15.1,13.7,6.5,19.9l-66.3,48c-3.9,2.8-5.5,7.8-4,12.3l25.3,77.8
			c3.3,10.1-8.3,18.6-16.9,12.3l-62.8-45.5v37.8c0,0,0,0,0,0c0,4.5-3.7,8.2-8.2,8.2c0,0,0,0,0,0c0,0,0,0,0,0c-4.5,0-8.2-3.7-8.2-8.2
			L111.2,12.2C111.2,12.2,111.2,12.2,111.2,12.2"/>
	</g>
</g>
</svg>
