<?xml version="1.0" encoding="utf-8"?>
<!-- Generator: Adobe Illustrator 19.0.0, SVG Export Plug-In . SVG Version: 6.00 Build 0)  -->
<svg version="1.1" id="Capa_1" xmlns="http://www.w3.org/2000/svg" xmlns:xlink="http://www.w3.org/1999/xlink" x="0px" y="0px"
	 viewBox="0 0 590 172.7" style="enable-background:new 0 0 590 172.7;" xml:space="preserve">
<style type="text/css">
	.st0{fill:#FFFFFF;}
</style>
<g id="XMLID_121_">
	<g id="XMLID_122_">
		<path id="XMLID_127_" class="st0" d="M477.2,31.6c2.8,0,5.1,2.3,5.1,5.1v98.2c0,2.8-2.3,5.1-5.1,5.1c-2.8,0-5.1-2.3-5.1-5.1V36.8
			C472.1,33.9,474.4,31.6,477.2,31.6"/>
		<path id="XMLID_126_" class="st0" d="M458.8,56.2c2.8,0,5.1,2.3,5.1,5.1v50c0,2.8-2.3,5.1-5.1,5.1c-2.8,0-5.1-2.3-5.1-5.1v-50
			C453.7,58.5,456,56.2,458.8,56.2"/>
		<path id="XMLID_125_" class="st0" d="M440,75.6c2.8,0,5.1,2.3,5.1,5.1V91c0,2.8-2.3,5.1-5.1,5.1c-2.8,0-5.1-2.3-5.1-5.1V80.7
			C434.9,77.9,437.2,75.6,440,75.6"/>
		<path id="XMLID_123_" class="st0" d="M492.8,9.3c0-2.8,2.3-5.1,5.1-5.1c0,0,0,0,0,0c0,0,0,0,0,0c0.4,0,0.7,0,1,0.1V4.3
			c0.3,0.1,0.5,0.2,0.7,0.3c0.2,0.1,0.4,0.2,0.6,0.3c0,0,0,0,0.1,0c0.8,0.4,1.4,1,1.9,1.8c0.4,0.6,0.8,1.2,1,1.9L519,56.8
			c0.9,2.8,3.5,4.7,6.5,4.7h50.8c6.6,0,9.4,8.5,4,12.4l-41.1,29.7c-2.4,1.7-3.4,4.8-2.5,7.6l15.7,48.2c2,6.3-5.1,11.5-10.5,7.6
			L503,138.9v23.4c0,0,0,0,0,0c0,2.8-2.3,5.1-5.1,5.1c0,0,0,0,0,0c0,0,0,0,0,0c-2.8,0-5.1-2.3-5.1-5.1L492.8,9.3
			C492.8,9.4,492.8,9.3,492.8,9.3"/>
	</g>
</g>
<g id="XMLID_156_">
	<path id="XMLID_159_" class="st0" d="M0,71.4v-4.5h13.6l0.6,9c1.8-3.2,4.1-5.7,7-7.4c2.9-1.7,6.4-2.6,10.5-2.6
		c4.2,0,7.7,1,10.5,3.1c2.8,2,4.8,5.1,6,9.3c1.6-3.8,4-6.9,7-9.1c3-2.2,6.8-3.3,11.1-3.3c5.8,0,10.3,1.9,13.5,5.8
		c3.2,3.9,4.8,9.9,4.8,18v26.7l8.2,0.7v4.4H70.2v-4.4l8.2-0.7V89.5c0-6.7-1.2-11.5-3.6-14.3c-2.4-2.8-5.7-4.2-9.9-4.2
		c-4.7,0-8.3,1.5-10.9,4.5c-2.5,3-4.1,6.8-4.7,11.5c0,0.3,0,0.5,0,0.8c0,0.2,0,0.5,0,0.9v27.7l8.2,0.7v4.4H35.1v-4.4l8.2-0.7V89.5
		c0-6.6-1.2-11.3-3.6-14.2c-2.4-2.8-5.7-4.3-9.9-4.3c-4.3,0-7.7,1.1-10.2,3.3c-2.5,2.2-4.3,5.1-5.3,8.8v33.3l8.2,0.7v4.4H0v-4.4
		l8.2-0.7V72L0,71.4z"/>
	<path id="XMLID_161_" class="st0" d="M99.8,117.1l8.2-0.7V72l-8.2-0.7v-4.5h14.2v49.5l8.2,0.7v4.4H99.8V117.1z M114.1,51.2h-6v-8.5
		h6V51.2z"/>
	<path id="XMLID_164_" class="st0" d="M186.2,71.5h-11.1l-1.9-10.1c-1.3-0.8-3.1-1.5-5.6-2.1c-2.5-0.6-5.1-0.9-7.8-0.9
		c-4,0-7.2,0.9-9.4,2.6c-2.2,1.7-3.3,3.9-3.3,6.6c0,2.5,1.2,4.5,3.5,6.1c2.3,1.6,6.3,3.3,11.9,5.1c8.1,2.3,14.3,5.2,18.5,8.9
		c4.2,3.7,6.3,8.6,6.3,14.6c0,6.3-2.5,11.3-7.5,14.9c-5,3.6-11.5,5.5-19.7,5.5c-5.8,0-11.1-0.9-15.8-2.8c-4.7-1.9-8.6-4.4-11.7-7.7
		V96.8H144l1.6,10.5c1.5,1.2,3.5,2.2,6,3c2.5,0.8,5.4,1.2,8.5,1.2c4,0,7.1-0.8,9.2-2.5c2.1-1.6,3.2-3.9,3.2-6.6c0-2.8-1-5.1-3-6.8
		c-2-1.7-5.5-3.3-10.5-4.8c-8.7-2.5-15.3-5.5-19.8-9c-4.5-3.5-6.7-8.2-6.7-14.2c0-6,2.5-10.8,7.6-14.6c5-3.8,11.4-5.7,19-5.8
		c5.7,0,10.8,0.9,15.5,2.6c4.6,1.7,8.6,4,11.7,6.9V71.5z"/>
	<path id="XMLID_166_" class="st0" d="M192.6,112.7l7.1-1.5v-58l-7.9-1.5v-8.9h22.6v31.1c1.7-2.5,3.8-4.5,6.3-5.9
		c2.5-1.4,5.3-2.1,8.3-2.1c5.7,0,10.2,1.9,13.5,5.7c3.2,3.8,4.9,9.6,4.9,17.5v22.1l7.1,1.5v8.8h-28.2v-8.8l6.4-1.5V89
		c0-4.2-0.7-7.2-2.2-9c-1.5-1.8-3.7-2.7-6.7-2.7c-2.1,0-3.8,0.4-5.4,1.1c-1.5,0.7-2.8,1.8-3.9,3.1v29.6l6.4,1.5v8.8h-28.2V112.7z"/>
	<path id="XMLID_168_" class="st0" d="M258.7,93.7c0-8.1,2.3-14.8,6.8-20c4.6-5.2,10.9-7.8,18.9-7.8c8.1,0,14.4,2.6,19,7.8
		c4.6,5.2,6.8,11.9,6.8,20v1.1c0,8.2-2.3,14.9-6.8,20.1c-4.6,5.2-10.8,7.8-18.9,7.8c-8.1,0-14.5-2.6-19-7.8
		c-4.6-5.2-6.8-11.9-6.8-20.1V93.7z M273.4,94.7c0,5,0.9,9,2.6,12c1.8,3,4.6,4.5,8.5,4.5c3.8,0,6.6-1.5,8.4-4.5c1.8-3,2.7-7,2.7-12
		v-1.1c0-4.8-0.9-8.8-2.7-11.9c-1.8-3.1-4.6-4.6-8.4-4.6c-3.8,0-6.6,1.5-8.4,4.6c-1.8,3.1-2.6,7-2.6,11.9V94.7z"/>
	<path id="XMLID_171_" class="st0" d="M394.5,75.7l-5.5,0.7l-11.4,45h-12.3L355.1,89h-0.3l-10.1,32.5h-12.3l-11.5-45l-5.5-0.7v-8.9
		h24.7v8.9l-5.8,1.1l5.2,25h0.3l10.2-35h9.9l10.3,35.1h0.3l5.1-25l-5.9-1.2v-8.9h24.7V75.7z"/>
</g>
<rect id="XMLID_158_" x="196" y="-145.1" style="fill:none;" width="198" height="46"/>
<text id="XMLID_157_" transform="matrix(1 0 0 1 196.0042 -107.0607)"><tspan x="0" y="0" style="font-family:'RobotoSlab-Light'; font-size:50px;">mi</tspan><tspan x="63.4" y="0" style="font-family:'RobotoSlab-Bold'; font-size:50px;">Show</tspan></text>
</svg>
