<?xml version="1.0" encoding="utf-8"?>
<!-- Generator: Adobe Illustrator 19.0.0, SVG Export Plug-In . SVG Version: 6.00 Build 0)  -->
<svg version="1.1" id="Capa_1" xmlns="http://www.w3.org/2000/svg" xmlns:xlink="http://www.w3.org/1999/xlink" x="0px" y="0px"
	 viewBox="0 0 172.7 284" style="enable-background:new 0 0 172.7 284;" xml:space="preserve">
<style type="text/css">
	.st0{fill:#FFFFFF;}
</style>
<g id="XMLID_383_">
	<g id="XMLID_385_">
		<path id="XMLID_390_" class="st0" d="M109.2,31.5c-2.8,0-5.1,2.3-5.1,5.1v98.2c0,2.8,2.3,5.1,5.1,5.1c2.8,0,5.1-2.3,5.1-5.1V36.6
			C114.3,33.8,112,31.5,109.2,31.5"/>
		<path id="XMLID_389_" class="st0" d="M127.6,56.1c-2.8,0-5.1,2.3-5.1,5.1v50c0,2.8,2.3,5.1,5.1,5.1c2.8,0,5.1-2.3,5.1-5.1v-50
			C132.7,58.4,130.4,56.1,127.6,56.1"/>
		<path id="XMLID_388_" class="st0" d="M164.4,75.4c-2.8,0-5.1,2.3-5.1,5.1v10.3c0,2.8,2.3,5.1,5.1,5.1c2.8,0,5.1-2.3,5.1-5.1V80.5
			C169.5,77.7,167.2,75.4,164.4,75.4"/>
		<path id="XMLID_387_" class="st0" d="M145.9,44.6c-2.8,0-5.1,2.3-5.1,5.1v72c0,2.8,2.3,5.1,5.1,5.1c2.8,0,5.1-2.3,5.1-5.1v-72
			C151,46.9,148.7,44.6,145.9,44.6"/>
		<path id="XMLID_386_" class="st0" d="M93.5,9.2c0-2.8-2.3-5.1-5.1-5.1c0,0,0,0,0,0c0,0,0,0,0,0c-0.4,0-0.7,0-1,0.1V4.1
			c-0.3,0.1-0.5,0.2-0.7,0.3c-0.2,0.1-0.4,0.2-0.6,0.3c0,0,0,0-0.1,0c-0.8,0.4-1.4,1-1.9,1.8c-0.4,0.6-0.8,1.2-1,1.9L67.4,56.7
			c-0.9,2.8-3.5,4.7-6.5,4.7H10c-6.6,0-9.4,8.5-4,12.4l41.1,29.7c2.4,1.7,3.4,4.8,2.5,7.6l-15.7,48.2c-2,6.3,5.1,11.5,10.5,7.6
			l38.9-28.2v23.4c0,0,0,0,0,0c0,2.8,2.3,5.1,5.1,5.1c0,0,0,0,0,0c0,0,0,0,0,0c2.8,0,5.1-2.3,5.1-5.1L93.5,9.2
			C93.5,9.2,93.5,9.2,93.5,9.2"/>
	</g>
	<g id="XMLID_382_">
		<path id="XMLID_391_" class="st0" d="M41.7,204.7l9.3,20.5l9.3-20.5h10v35.1h-8.1l0-22.2L54,236.3h-6l-8.2-18.7v22.2h-8.2v-35.1
			H41.7z"/>
		<path id="XMLID_393_" class="st0" d="M83.5,204.7l8.8,25.4l8.8-25.4h9.4l-13.7,35.1h-9.5l-13.6-35.1H83.5z"/>
		<path id="XMLID_395_" class="st0" d="M143.2,217c0,8.2-5.2,13.1-14.1,13.1h-6.2v9.7h-9.2v-35.1h15.4
			C138.1,204.7,143.2,209.2,143.2,217z M134.5,217.3c0-3.5-2.1-5.3-5.8-5.3h-5.8v10.8h5.8C132.4,222.8,134.5,220.9,134.5,217.3z"/>
		<path id="XMLID_398_" class="st0" d="M43.9,254.8c-3.6,0-6,1.4-6,3.8c0,7.3,15.8,3.5,15.7,13.6c0,4.6-4.1,7.6-10.1,7.6
			c-4.1,0-8.1-1.8-10.7-4.3l1.4-2.8c2.6,2.5,6.2,3.9,9.3,3.9c4,0,6.6-1.6,6.6-4.4c0-7.5-15.7-3.5-15.7-13.6c0-4.4,3.9-7.2,9.7-7.2
			c3.2,0,6.6,1,8.9,2.6l-1.4,2.8C49.1,255.5,46.2,254.8,43.9,254.8z"/>
		<path id="XMLID_400_" class="st0" d="M79.3,266.8v13h-3.1v-12.2c0-3.8-2.2-6-6-6c-4.5,0-7.1,3.2-7.1,7.8v10.3H60v-29.7h3.1v13.4
			c1.4-3.3,4.3-4.8,8.2-4.8C76.4,258.6,79.3,261.7,79.3,266.8z"/>
		<path id="XMLID_402_" class="st0" d="M105.5,269.2c0,6.3-4.4,10.7-10.7,10.7c-6.2,0-10.7-4.4-10.7-10.7c0-6.2,4.4-10.6,10.7-10.6
			C101.1,258.6,105.5,263,105.5,269.2z M87.3,269.3c0,4.7,3.2,7.9,7.6,7.9c4.4,0,7.6-3.2,7.6-7.9c0-4.6-3.2-7.9-7.6-7.9
			C90.5,261.4,87.3,264.6,87.3,269.3z"/>
		<path id="XMLID_405_" class="st0" d="M110,258.7l6.2,17.9l6.1-17.9h3.3l6.2,17.9l6.2-17.9h3.2l-7.8,21h-3.2l-6.2-17.2l-6.2,17.2
			h-3.2l-7.9-21H110z"/>
	</g>
</g>
</svg>
